<?xml version="1.0" encoding="utf-8"?>
<!-- Generator: Adobe Illustrator 19.0.0, SVG Export Plug-In . SVG Version: 6.00 Build 0)  -->
<svg version="1.1" id="Capa_1" xmlns="http://www.w3.org/2000/svg" xmlns:xlink="http://www.w3.org/1999/xlink" x="0px" y="0px"
	 viewBox="0 0 819.189 152.231" enable-background="new 0 0 819.189 152.231" xml:space="preserve">
<g>
	<path fill="#FF0061" d="M819.189,149.126c0,1.65-1.35,3-3,3H670.495c-1.65,0-3-1.35-3-3V3.436c0-1.65,1.35-3,3-3h145.694
		c1.65,0,3,1.35,3,3V149.126z"/>
</g>
<g>
	<path fill="#FF0061" d="M151.694,148.814c0,1.65-1.35,3-3,3H3c-1.65,0-3-1.35-3-3V3.123c0-1.65,1.35-3,3-3h145.694
		c1.65,0,3,1.35,3,3V148.814z"/>
</g>
<path fill="#FF0061" d="M484.625,4.458c0-2.452-2.006-4.458-4.458-4.458H337.389c-2.452,0-4.458,2.006-4.458,4.458v142.775
	c0,2.452,2.006,4.458,4.458,4.458h106.332l40.904-40.904V4.458z"/>
<polygon opacity="0.3" points="444.791,112.264 405.373,151.691 443.721,151.691 484.625,110.787 "/>
<path fill="#FF5BA0" d="M484.625,110.787h-36.446c-2.452,0-4.458,2.006-4.458,4.458v36.446L484.625,110.787z"/>
<g>
	<path fill="#FF0061" d="M318.168,149.231c0,1.65-1.35,3-3,3H169.474c-1.65,0-3-1.35-3-3V3.54c0-1.65,1.35-3,3-3h145.694
		c1.65,0,3,1.35,3,3V149.231z"/>
</g>
<g>
	<path fill="#FF0061" d="M651.191,149.231c0,1.65-1.35,3-3,3H502.498c-1.65,0-3-1.35-3-3V3.54c0-1.65,1.35-3,3-3h145.694
		c1.65,0,3,1.35,3,3V149.231z"/>
</g>
<path fill="#FFFFFF" d="M104.853,53.475l0.015,45.735c0,0.905-0.733,1.638-1.638,1.638H91.367c-0.905,0-1.638-0.726-1.638-1.631
	c0.003-5.361,0.011-22.132,0.011-22.801c-4.875,6.69-9.667,13.268-14.652,20.11C74.108,95.23,60.795,76.56,60.075,75.367
	c0,0.854-0.039,18.439-0.051,23.937c-0.002,0.903-0.735,1.628-1.638,1.628h-11.48c-0.904,0-1.637-0.733-1.638-1.637l-0.023-45.809
	c0-0.904,0.732-1.638,1.636-1.639l10.543-0.009c0.524,0,1.017,0.25,1.326,0.674l16.201,22.275l16.379-22.283
	c0.309-0.42,0.799-0.668,1.32-0.668h10.565C104.12,51.838,104.853,52.571,104.853,53.475z"/>
<path fill="#FFFFFF" d="M410.523,51.293c2.288,0,5.542,0.501,6.798,0.81c4.93,1.211,8.968,3.778,11.676,8.128
	c4.336,6.966,3.489,17.191-4.082,22.322c-0.803,0.544-1.585,1.119-2.546,1.8c0.22,0.392,7.114,11.091,9.508,14.803
	c0.349,0.541-0.04,1.254-0.685,1.253l-15.093-0.011c-0.608,0-1.174-0.31-1.502-0.822l-8.016-12.506h-6.387l-0.007,11.515
	c-0.001,0.985-0.799,1.784-1.785,1.785l-11.285,0.006c-0.986,0.001-1.786-0.799-1.787-1.785l-0.019-45.512
	c0-0.986,0.799-1.786,1.786-1.786H410.523z M400.29,75.104c0,0,7.121,0.024,10.336,0.024c0.876,0,1.907-0.238,2.706-0.633
	c1.938-0.958,2.958-2.835,2.958-5.021c0-2.438-0.917-3.646-2.792-4.729c-1.101-0.636-2.176-0.797-3.347-0.797
	c-3.283,0-6.486,0.01-9.85,0.01C400.302,67.732,400.29,75.104,400.29,75.104z"/>
<path fill="#FFFFFF" d="M266.269,51.393c0.979,0,1.772,0.787,1.772,1.766c0.001,4.906,0.004,18.789,0.004,25.597
	c-0.178,5.988-2.114,11.485-6.489,15.83c-3.634,3.609-8.158,5.431-13.145,6.311c-3.051,0.539-6.125,0.579-9.168,0.348
	c-6.41-0.486-12.274-2.432-16.824-7.286c-3.047-3.25-4.81-7.156-5.461-11.516c-0.348-2.328-0.438-4.709-0.456-7.067
	c-0.045-5.716-0.006-17.71,0.011-22.219c0.004-0.976,0.796-1.763,1.772-1.763h11.201c0.979,0,1.773,0.791,1.772,1.77
	c-0.002,4.485-0.002,16.34,0.055,21.988c0.026,2.563,0.22,5.146,1.223,7.566c0.849,2.048,2.156,3.651,4.175,4.752
	c2.687,1.465,5.558,1.492,8.354,1.021c3.809-0.643,6.356-3.049,7.361-6.839c0.352-1.328,0.525-2.741,0.534-4.117
	c0-6.295,0.011-19.588,0.016-24.375c0.001-0.978,0.794-1.765,1.772-1.765H266.269z"/>
<path fill="#FFFFFF" d="M582.202,51.83l21.843,47.52c0.334,0.726-0.195,1.554-0.995,1.556l-13.215,0.031
	c-0.878,0.002-1.672-0.526-2.009-1.337l-2.046-4.923h-21.17l-2.13,4.938c-0.344,0.796-1.128,1.312-1.996,1.31l-13.212-0.022
	c-0.802-0.001-1.331-0.834-0.993-1.56l22.098-47.513H582.202z M580.3,82.664l-5.127-13.571l-5.176,13.571H580.3z"/>
<path fill="#FFFFFF" d="M739.416,53.649l0.018,34.595l20.774,0.019c1.001,0.001,1.811,0.812,1.811,1.813l0,9
	c0,1.002-0.812,1.813-1.814,1.813l-33.768-0.019c-1.001-0.001-1.812-0.812-1.812-1.813l0.017-45.407
	c0-1.001,0.812-1.812,1.813-1.812h11.147C738.604,51.838,739.416,52.649,739.416,53.649z"/>
<g>
</g>
<g>
</g>
<g>
</g>
<g>
</g>
<g>
</g>
<g>
</g>
<g>
</g>
<g>
</g>
<g>
</g>
<g>
</g>
<g>
</g>
<g>
</g>
<g>
</g>
<g>
</g>
<g>
</g>
</svg>
